<svg id="visual" viewBox="0 0 900 600" width="900" height="600" xmlns="http://www.w3.org/2000/svg" xmlns:xlink="http://www.w3.org/1999/xlink" version="1.1"><rect x="0" y="0" width="900" height="600" fill="#931C1C"></rect><path d="M0 118L82 100L164 126L245 114L327 108L409 100L491 141L573 139L655 149L736 150L818 107L900 112L900 0L818 0L736 0L655 0L573 0L491 0L409 0L327 0L245 0L164 0L82 0L0 0Z" fill="#871400"></path><path d="M0 110L82 101L164 120L245 120L327 116L409 94L491 77L573 100L655 107L736 107L818 90L900 88L900 0L818 0L736 0L655 0L573 0L491 0L409 0L327 0L245 0L164 0L82 0L0 0Z" fill="#9b081e"></path><path d="M0 81L82 84L164 74L245 57L327 81L409 68L491 62L573 70L655 90L736 88L818 79L900 64L900 0L818 0L736 0L655 0L573 0L491 0L409 0L327 0L245 0L164 0L82 0L0 0Z" fill="#ad0038"></path><path d="M0 52L82 50L164 59L245 35L327 39L409 53L491 65L573 39L655 54L736 57L818 56L900 53L900 0L818 0L736 0L655 0L573 0L491 0L409 0L327 0L245 0L164 0L82 0L0 0Z" fill="#bb0055"></path><path d="M0 18L82 33L164 37L245 16L327 36L409 44L491 35L573 19L655 43L736 36L818 30L900 17L900 0L818 0L736 0L655 0L573 0L491 0L409 0L327 0L245 0L164 0L82 0L0 0Z" fill="#c30e74"></path></svg>